<svg width="591" height="591" xmlns="http://www.w3.org/2000/svg" version="1.0" preserveAspectRatio="xMidYMid meet" stroke="null">
 <g stroke="null">
  <title stroke="null">Layer 1</title>
  <path transform="rotate(-180 306.834 289.26)" stroke="null" fill="#ffffff" id="svg_10" d="m65.8777,572.85328l240.95616,-567.18573l240.95616,567.18573l-481.91232,0z"/>
  <path stroke="null" fill="#0f172a" d="m296.37607,10.72169c-6.55976,2.66534 -49.43804,19.27236 -95.19618,36.90456c-45.75813,17.83726 -83.83665,32.80402 -84.47665,33.21414c-0.63999,0.61507 41.75835,110.50874 94.3962,244.59532l95.67619,243.57024l0.48002,-192.31389l0.31996,-192.31389l10.07961,-4.92056c125.595,-63.35282 186.55254,-94.9268 185.59259,-95.95188c-0.63999,-0.82013 -8.47967,-4.30549 -17.27929,-7.79097c-29.75883,-11.48139 -168.31322,-66.01816 -175.99291,-69.29857c-0.79997,-0.41001 -7.0397,1.64015 -13.59946,4.30549l-0.00008,0z" id="svg_3"/>
 </g>

</svg>